<?xml version="1.0" encoding="UTF-8"?>
<svg width="128" height="128" viewBox="0 0 128 128" xmlns="http://www.w3.org/2000/svg">
  <defs>
    <radialGradient id="brainGradient" cx="50%" cy="50%" r="50%">
      <stop offset="0%" style="stop-color:#4a90e2;stop-opacity:1" />
      <stop offset="100%" style="stop-color:#1e3a8a;stop-opacity:1" />
    </radialGradient>
  </defs>
  
  <!-- Background circle -->
  <circle cx="64" cy="64" r="60" fill="url(#brainGradient)" stroke="#0f172a" stroke-width="2"/>
  
  <!-- Brain-like neural pattern -->
  <circle cx="40" cy="45" r="8" fill="#60a5fa" opacity="0.8"/>
  <circle cx="88" cy="45" r="6" fill="#60a5fa" opacity="0.8"/>
  <circle cx="64" cy="35" r="5" fill="#93c5fd" opacity="0.9"/>
  <circle cx="35" cy="70" r="7" fill="#60a5fa" opacity="0.8"/>
  <circle cx="90" cy="75" r="6" fill="#60a5fa" opacity="0.8"/>
  <circle cx="64" cy="85" r="4" fill="#93c5fd" opacity="0.9"/>
  <circle cx="55" cy="60" r="9" fill="#3b82f6" opacity="0.9"/>
  <circle cx="75" cy="65" r="5" fill="#60a5fa" opacity="0.8"/>
  
  <!-- Connecting lines (neural pathways) -->
  <line x1="40" y1="45" x2="55" y2="60" stroke="#93c5fd" stroke-width="2" opacity="0.6"/>
  <line x1="88" y1="45" x2="75" y2="65" stroke="#93c5fd" stroke-width="2" opacity="0.6"/>
  <line x1="64" y1="35" x2="55" y2="60" stroke="#93c5fd" stroke-width="2" opacity="0.6"/>
  <line x1="55" y1="60" x2="35" y2="70" stroke="#93c5fd" stroke-width="2" opacity="0.6"/>
  <line x1="75" y1="65" x2="90" y2="75" stroke="#93c5fd" stroke-width="2" opacity="0.6"/>
  <line x1="55" y1="60" x2="64" y2="85" stroke="#93c5fd" stroke-width="2" opacity="0.6"/>
  <line x1="75" y1="65" x2="64" y2="85" stroke="#93c5fd" stroke-width="2" opacity="0.6"/>
  
  <!-- Central consciousness core -->
  <circle cx="64" cy="64" r="12" fill="#fbbf24" opacity="0.9" stroke="#f59e0b" stroke-width="2"/>
  <circle cx="64" cy="64" r="6" fill="#fef3c7" opacity="0.8"/>
  
  <!-- Title text -->
  <text x="64" y="110" text-anchor="middle" font-family="Arial, sans-serif" font-size="14" font-weight="bold" fill="#e2e8f0">WIGHT</text>
</svg>